<svg width="1440" height="373" viewBox="0 0 1440 373" fill="none" xmlns="http://www.w3.org/2000/svg">
<rect y="236.386" width="1440" height="136" fill="#E9E3CF"/>
<path fill-rule="evenodd" clip-rule="evenodd" d="M0 183.344L24 142.509C48 104.768 96 29.2864 144 29.2864C192 29.2864 240 36.6037 288 74.3445C336 112.085 384 111.635 432 105.344C480 99.0544 528 95.8754 576 51.8445C624 7.81361 672 -8.4544 720 4.12585C768 16.7061 816 79.6074 864 129.928C912 180.249 960 161.379 1008 148.799C1056 136.218 1104 111.101 1152 92.2309C1200 73.3605 1248 79.6506 1296 92.2309C1344 104.811 1392 180.249 1416 199.12L1440 217.99V255.731H1416C1392 255.731 1344 255.731 1296 255.731C1248 255.731 1200 255.731 1152 255.731C1104 255.731 1056 255.731 1008 255.731C960 255.731 912 255.731 864 255.731C816 255.731 768 255.731 720 255.731C672 255.731 624 255.731 576 255.731C528 255.731 480 255.731 432 255.731C384 255.731 336 255.731 288 255.731C240 255.731 192 255.731 144 255.731C96 255.731 48 255.731 24 255.731H0V183.344Z" fill="#E9E3CF"/>
</svg>
