<svg width="1440" height="279" viewBox="0 0 1440 279" fill="none" xmlns="http://www.w3.org/2000/svg">
<path fill-rule="evenodd" clip-rule="evenodd" d="M0 154C18.5 142.5 96 63.0021 144 93.0018C192 123.002 240 111.002 288 93.0018C336 75.002 384 61.4997 432 25.5C480 -10.4996 528 -4.49969 576 25.5C669 99.0018 638.5 76.5005 686.5 130.5C734.5 184.5 816 189.001 864 177.001C912 165.001 960 123.002 1008 123.002C1056 123.002 1104 183.001 1152 177.001C1200 171.001 1248 99.0017 1296 75.002C1344 51.0022 1392 75.002 1416 87.0019L1440 99.0018V279H1416C1392 279 1344 279 1296 279C1248 279 1200 279 1152 279C1104 279 1056 279 1008 279C960 279 912 279 864 279C816 279 768 279 720 279C672 279 624 279 576 279C528 279 480 279 432 279C384 279 336 279 288 279C240 279 192 279 144 279C96 279 48 279 24 279H0V154Z" fill="#DED6B8"/>
</svg>
